<mxfile host="app.diagrams.net" modified="2023-06-09T13:57:27.664Z" agent="Mozilla/5.0 (Macintosh; Intel Mac OS X 10_15_7) AppleWebKit/537.36 (KHTML, like Gecko) Chrome/114.0.0.0 Safari/537.36" etag="PxRlvoR23F_3RW9I_eYC" version="21.3.7" type="github">
  <diagram id="CYZacEfCeFZeHs07AZra" name="Page-1">
    <mxGraphModel dx="733" dy="428" grid="1" gridSize="10" guides="1" tooltips="1" connect="1" arrows="1" fold="1" page="1" pageScale="1" pageWidth="827" pageHeight="1169" math="0" shadow="0">
      <root>
        <mxCell id="0" />
        <mxCell id="1" parent="0" />
        <mxCell id="Yy77Hk5YitaZg9_ypAlM-9" style="edgeStyle=orthogonalEdgeStyle;rounded=0;orthogonalLoop=1;jettySize=auto;html=1;entryX=0;entryY=0.5;entryDx=0;entryDy=0;entryPerimeter=0;" edge="1" parent="1" source="Yy77Hk5YitaZg9_ypAlM-1" target="Yy77Hk5YitaZg9_ypAlM-4">
          <mxGeometry relative="1" as="geometry" />
        </mxCell>
        <mxCell id="Yy77Hk5YitaZg9_ypAlM-10" style="edgeStyle=orthogonalEdgeStyle;rounded=0;orthogonalLoop=1;jettySize=auto;html=1;entryX=0;entryY=0.5;entryDx=0;entryDy=0;entryPerimeter=0;" edge="1" parent="1" source="Yy77Hk5YitaZg9_ypAlM-1" target="Yy77Hk5YitaZg9_ypAlM-5">
          <mxGeometry relative="1" as="geometry" />
        </mxCell>
        <mxCell id="Yy77Hk5YitaZg9_ypAlM-11" style="edgeStyle=orthogonalEdgeStyle;rounded=0;orthogonalLoop=1;jettySize=auto;html=1;entryX=0;entryY=0.5;entryDx=0;entryDy=0;entryPerimeter=0;" edge="1" parent="1" source="Yy77Hk5YitaZg9_ypAlM-1" target="Yy77Hk5YitaZg9_ypAlM-6">
          <mxGeometry relative="1" as="geometry" />
        </mxCell>
        <mxCell id="Yy77Hk5YitaZg9_ypAlM-1" value="Service 1" style="whiteSpace=wrap;html=1;aspect=fixed;" vertex="1" parent="1">
          <mxGeometry x="160" y="310" width="80" height="80" as="geometry" />
        </mxCell>
        <mxCell id="Yy77Hk5YitaZg9_ypAlM-13" style="edgeStyle=orthogonalEdgeStyle;rounded=0;orthogonalLoop=1;jettySize=auto;html=1;" edge="1" parent="1" source="Yy77Hk5YitaZg9_ypAlM-2" target="Yy77Hk5YitaZg9_ypAlM-5">
          <mxGeometry relative="1" as="geometry" />
        </mxCell>
        <mxCell id="Yy77Hk5YitaZg9_ypAlM-2" value="Service 2" style="whiteSpace=wrap;html=1;aspect=fixed;" vertex="1" parent="1">
          <mxGeometry x="160" y="402.5" width="80" height="80" as="geometry" />
        </mxCell>
        <mxCell id="Yy77Hk5YitaZg9_ypAlM-14" style="edgeStyle=orthogonalEdgeStyle;rounded=0;orthogonalLoop=1;jettySize=auto;html=1;" edge="1" parent="1" source="Yy77Hk5YitaZg9_ypAlM-3" target="Yy77Hk5YitaZg9_ypAlM-4">
          <mxGeometry relative="1" as="geometry" />
        </mxCell>
        <mxCell id="Yy77Hk5YitaZg9_ypAlM-3" value="Service 3" style="whiteSpace=wrap;html=1;aspect=fixed;" vertex="1" parent="1">
          <mxGeometry x="160" y="497.5" width="80" height="80" as="geometry" />
        </mxCell>
        <mxCell id="Yy77Hk5YitaZg9_ypAlM-4" value="Missed result" style="strokeWidth=2;html=1;shape=mxgraph.flowchart.direct_data;whiteSpace=wrap;" vertex="1" parent="1">
          <mxGeometry x="290" y="497.5" width="120" height="60" as="geometry" />
        </mxCell>
        <mxCell id="Yy77Hk5YitaZg9_ypAlM-5" value="Error" style="strokeWidth=2;html=1;shape=mxgraph.flowchart.direct_data;whiteSpace=wrap;" vertex="1" parent="1">
          <mxGeometry x="290" y="422.5" width="120" height="60" as="geometry" />
        </mxCell>
        <mxCell id="Yy77Hk5YitaZg9_ypAlM-6" value="No results" style="strokeWidth=2;html=1;shape=mxgraph.flowchart.direct_data;whiteSpace=wrap;" vertex="1" parent="1">
          <mxGeometry x="290" y="342.5" width="120" height="60" as="geometry" />
        </mxCell>
        <mxCell id="Yy77Hk5YitaZg9_ypAlM-16" style="edgeStyle=orthogonalEdgeStyle;rounded=0;orthogonalLoop=1;jettySize=auto;html=1;exitX=0;exitY=0.5;exitDx=0;exitDy=0;exitPerimeter=0;entryX=1;entryY=0.5;entryDx=0;entryDy=0;entryPerimeter=0;" edge="1" parent="1" source="Yy77Hk5YitaZg9_ypAlM-15" target="Yy77Hk5YitaZg9_ypAlM-6">
          <mxGeometry relative="1" as="geometry" />
        </mxCell>
        <mxCell id="Yy77Hk5YitaZg9_ypAlM-17" style="edgeStyle=orthogonalEdgeStyle;rounded=0;orthogonalLoop=1;jettySize=auto;html=1;" edge="1" parent="1" source="Yy77Hk5YitaZg9_ypAlM-15" target="Yy77Hk5YitaZg9_ypAlM-4">
          <mxGeometry relative="1" as="geometry" />
        </mxCell>
        <mxCell id="Yy77Hk5YitaZg9_ypAlM-18" style="edgeStyle=orthogonalEdgeStyle;rounded=0;orthogonalLoop=1;jettySize=auto;html=1;entryX=1;entryY=0.5;entryDx=0;entryDy=0;entryPerimeter=0;" edge="1" parent="1" source="Yy77Hk5YitaZg9_ypAlM-15" target="Yy77Hk5YitaZg9_ypAlM-5">
          <mxGeometry relative="1" as="geometry" />
        </mxCell>
        <mxCell id="Yy77Hk5YitaZg9_ypAlM-15" value="&lt;font style=&quot;font-size: 24px;&quot;&gt;Data Warehouse&lt;/font&gt;" style="shape=cylinder3;whiteSpace=wrap;html=1;boundedLbl=1;backgroundOutline=1;size=15;" vertex="1" parent="1">
          <mxGeometry x="460" y="380" width="140" height="140" as="geometry" />
        </mxCell>
      </root>
    </mxGraphModel>
  </diagram>
</mxfile>
